# xmcd
#
# Track frame offsets:
#	150
#	12207
#	27443
#	39531
#	52640
#	68703
#	92633
#	103794
#	116338
#	134082
#	145937
#	157945
#	171718
#	188665
#	199463
#	211533
#
# Disc length: 3040
#
# Revision: 3
# Processed by: cddbd v1.5.1PL0 Copyright (c) Steve Scherf et al.
# Submitted via: audiograbber 1.83.01
# Normalized: r2:DSETVAR1
#
DISCID=db0bde10
DTITLE=Various Artist - Country Feelings - CD 1
DYEAR=1900
DGENRE=Country
TTITLE0=Telly Savalas - Some Broken Hearts Never Meind
TTITLE1=Bellamy Brothers - I Need More of You
TTITLE2=Nashville Music Company - Blue Bayou
TTITLE3=Patsy Clive and Willie Nelson - Life's A Railway to Heaven
TTITLE4=John Brack - Red River Valley
TTITLE5=The Cumberland Boys - Just a Closer Walk With Thee
TTITLE6=Pam Gadd - Sittin' on the Top of the World
TTITLE7=Peter Hinnen - In the Middle of an Island
TTITLE8=Joyce 'n' Webber - Midnight Special
TTITLE9=Dolly Parton - Making Believe
TTITLE10=Kenny Rogers - Ruben James
TTITLE11=Juice Newton - Listen to the Radio
TTITLE12=Billy Troy - Frankie and Johnny
TTITLE13=Jennifer Weatherly - The Yellow Rose of Texas
TTITLE14=The Nashville Pickers - Rollin' in My Sweet Baby's Arms
TTITLE15=Rolf Raggenbass and Country Heart Band - Goodbye Mexico
EXTD=
EXTT0=
EXTT1=
EXTT2=
EXTT3=
EXTT4=
EXTT5=
EXTT6=
EXTT7=
EXTT8=
EXTT9=
EXTT10=
EXTT11=
EXTT12=
EXTT13=
EXTT14=
EXTT15=
PLAYORDER=
